# File created by Blade
# Date/Time:  Thu Jan 22 16:31:11 2015
# Frame Rate: 120.000 fps
#------------------------------------------------------
:FULLY-SPECIFIED
:DEGREES
1237
root 2.322990 37.356193 2.513996 -1.992390 -2.814514 2.325351
RightUpLeg 10.905368 -0.630714 -2.803943
RightLeg -5.928359 -0.000000 0.000000
RightFoot -11.562277 -15.978062 17.997234
RightToeBase 14.824970 -0.000000 -0.000000
LeftUpLeg 9.130171 -3.154668 -1.512352
LeftLeg -3.326441 -0.000000 0.000000
LeftFoot -8.031820 13.727850 -17.061460
LeftToeBase 10.032580 -0.000000 -0.000000
Spine 9.539197 -4.054090 -3.497218
RightShoulder -6.617297 -9.614439 -27.464068
RightArm 7.316150 25.466185 26.586987
RightForeArm 8.171649 -0.000000 14.182346
RightHand 2.784099 -0.000000 -3.704681
RightHandThumb1 -24.326973 -0.000000 -32.862282
LeftShoulder -25.508318 30.227969 17.694615
LeftArm 39.431500 -50.569578 -47.827248
LeftForeArm 36.990005 -0.000000 3.112057
LeftHand -16.574032 -0.000000 -0.671993
LeftHandThumb1 -26.253704 0.000000 33.147579
Head -11.043923 12.815691 4.076277
1238
root 2.324393 37.355844 2.517298 -2.003664 -2.824193 2.326179
RightUpLeg 10.920048 -0.631004 -2.807296
RightLeg -5.927941 -0.000000 0.000000
RightFoot -11.561831 -15.979266 17.987906
RightToeBase 14.826692 -0.000000 -0.000000
LeftUpLeg 9.145853 -3.147495 -1.518116
LeftLeg -3.325678 -0.000000 0.000000
LeftFoot -8.034106 13.743109 -17.039609
LeftToeBase 10.038135 -0.000000 -0.000000
Spine 9.548731 -4.045395 -3.487777
RightShoulder -6.614269 -9.624938 -27.467359
RightArm 7.358743 25.463513 26.618151
RightForeArm 8.190965 -0.000000 14.221953
RightHand 2.821541 0.000000 -3.729336
RightHandThumb1 -24.326973 -0.000000 -32.862282
LeftShoulder -25.501917 30.239572 17.676524
LeftArm 39.453286 -50.562979 -47.842443
LeftForeArm 36.973034 -0.000000 3.123186
LeftHand -16.424903 -0.000000 -0.934265
LeftHandThumb1 -26.253704 0.000000 33.147579
Head -10.933079 12.825486 4.073251
1239
root 2.327160 37.355064 2.522845 -2.017572 -2.820129 2.334327
RightUpLeg 10.944863 -0.651918 -2.821024
RightLeg -5.934889 -0.000000 0.000000
RightFoot -11.553281 -15.977658 17.955170
RightToeBase 14.806965 -0.000000 -0.000000
LeftUpLeg 9.168978 -3.148658 -1.534448
LeftLeg -3.329918 -0.000000 0.000000
LeftFoot -8.046819 13.754647 -17.034631
LeftToeBase 10.073411 -0.000000 -0.000000
Spine 9.543636 -4.047785 -3.472517
RightShoulder -6.593016 -9.629138 -27.486636
RightArm 7.378079 25.461611 26.632896
RightForeArm 8.192504 0.000000 14.230767
RightHand 2.933571 -0.000000 -3.774992
RightHandThumb1 -24.326973 -0.000000 -32.862282
LeftShoulder -25.465927 30.253584 17.658245
LeftArm 39.393587 -50.508553 -47.767311
LeftForeArm 36.939165 -0.000000 3.147238
LeftHand -16.437957 -0.000000 -1.060207
LeftHandThumb1 -26.253704 0.000000 33.147579
Head -10.793478 12.857951 4.067305
1240
root 2.328976 37.354272 2.527212 -2.028757 -2.818193 2.338561
RightUpLeg 10.965068 -0.668929 -2.830140
RightLeg -5.941437 -0.000000 0.000000
RightFoot -11.559019 -15.969431 17.958464
RightToeBase 14.832266 -0.000000 -0.000000
LeftUpLeg 9.190535 -3.171538 -1.545787
LeftLeg -3.336476 -0.000000 0.000000
LeftFoot -8.048791 13.774317 -17.027113
LeftToeBase 10.057686 -0.000000 -0.000000
Spine 9.548261 -4.053527 -3.465264
RightShoulder -6.593153 -9.682771 -27.469974
RightArm 7.454270 25.515356 26.651838
RightForeArm 8.195040 -0.000000 14.235563
RightHand 2.961081 -0.000000 -3.770776
RightHandThumb1 -24.326973 -0.000000 -32.862282
LeftShoulder -25.478440 30.284385 17.645521
LeftArm 39.444645 -50.480943 -47.825463
LeftForeArm 36.975349 0.000000 3.174470
LeftHand -16.407257 -0.000000 -1.100796
LeftHandThumb1 -26.253704 0.000000 33.147579
Head -10.685819 12.778906 4.055381
1241
root 2.329936 37.353408 2.532190 -2.043176 -2.821099 2.339984
RightUpLeg 10.992232 -0.653831 -2.831501
RightLeg -5.953364 -0.000000 0.000000
RightFoot -11.576284 -15.974997 17.992993
RightToeBase 14.862880 -0.000000 -0.000000
LeftUpLeg 9.210986 -3.151749 -1.549758
LeftLeg -3.332792 -0.000000 0.000000
LeftFoot -8.057761 13.767659 -17.021040
LeftToeBase 10.051555 -0.000000 -0.000000
Spine 9.552345 -4.036259 -3.448107
RightShoulder -6.599454 -9.685953 -27.480207
RightArm 7.487541 25.531550 26.682465
RightForeArm 8.133520 0.000000 14.253092
RightHand 2.940507 0.000000 -3.768671
RightHandThumb1 -24.326973 -0.000000 -32.862282
LeftShoulder -25.464887 30.314560 17.627626
LeftArm 39.478487 -50.438797 -47.849034
LeftForeArm 37.036581 -0.000000 3.206441
LeftHand -16.624268 -0.000000 -0.924476
LeftHandThumb1 -26.253704 0.000000 33.147579
Head -10.571273 12.765682 4.034891
1242
root 2.331573 37.352637 2.536670 -2.055678 -2.825621 2.340579
RightUpLeg 11.012153 -0.665307 -2.836666
RightLeg -5.956555 -0.000000 0.000000
RightFoot -11.578015 -15.964677 17.972704
RightToeBase 14.878818 -0.000000 -0.000000
LeftUpLeg 9.236201 -3.176027 -1.559695
LeftLeg -3.342105 -0.000000 0.000000
LeftFoot -8.076404 13.798228 -17.036200
LeftToeBase 10.064517 -0.000000 -0.000000
Spine 9.551634 -4.024255 -3.429028
RightShoulder -6.594818 -9.705102 -27.486940
RightArm 7.519368 25.545366 26.702368
RightForeArm 8.122128 -0.000000 14.285449
RightHand 2.915005 0.000000 -3.745460
RightHandThumb1 -24.326973 -0.000000 -32.862282
LeftShoulder -25.419623 30.309141 17.637138
LeftArm 39.444039 -50.421103 -47.835582
LeftForeArm 37.018559 -0.000000 3.215062
LeftHand -16.578438 -0.000000 -1.092112
LeftHandThumb1 -26.253704 0.000000 33.147579
Head -10.460597 12.759837 4.022793
1243
root 2.332860 37.351876 2.541163 -2.065472 -2.826057 2.344871
RightUpLeg 11.032070 -0.657079 -2.842174
RightLeg -5.964189 -0.000000 0.000000
RightFoot -11.572129 -15.982995 17.954663
RightToeBase 14.818950 -0.000000 -0.000000
LeftUpLeg 9.254936 -3.182596 -1.569006
LeftLeg -3.346414 -0.000000 0.000000
LeftFoot -8.074452 13.805522 -17.017589
LeftToeBase 10.040291 -0.000000 -0.000000
Spine 9.551122 -4.017427 -3.413887
RightShoulder -6.592853 -9.704587 -27.507699
RightArm 7.543635 25.538332 26.728918
RightForeArm 8.144382 -0.000000 14.309497
RightHand 2.885981 -0.000000 -3.724350
RightHandThumb1 -24.326973 -0.000000 -32.862282
LeftShoulder -25.411820 30.325576 17.630803
LeftArm 39.495884 -50.409257 -47.905333
LeftForeArm 37.067765 -0.000000 3.227899
LeftHand -16.506110 -0.000000 -1.012655
LeftHandThumb1 -26.253704 0.000000 33.147579
Head -10.362039 12.761835 4.011813
1244
root 2.334592 37.350947 2.545851 -2.078081 -2.828461 2.352511
RightUpLeg 11.053380 -0.662178 -2.853882
RightLeg -5.965039 -0.000000 0.000000
RightFoot -11.605704 -15.966756 17.987139
RightToeBase 14.890471 -0.000000 -0.000000
LeftUpLeg 9.274635 -3.186890 -1.583063
LeftLeg -3.345303 -0.000000 0.000000
LeftFoot -8.081776 13.820988 -17.004162
LeftToeBase 10.040146 -0.000000 -0.000000
Spine 9.552729 -4.013436 -3.403872
RightShoulder -6.595417 -9.704878 -27.519754
RightArm 7.591365 25.533474 26.752347
RightForeArm 8.147188 -0.000000 14.302329
RightHand 2.915015 0.000000 -3.726495
RightHandThumb1 -24.326973 -0.000000 -32.862282
LeftShoulder -25.415913 30.347702 17.629597
LeftArm 39.575669 -50.407968 -48.014432
LeftForeArm 37.037500 -0.000000 3.255719
LeftHand -16.508672 -0.000000 -0.963472
LeftHandThumb1 -26.253704 0.000000 33.147579
Head -10.257311 12.744922 4.009004
1245
root 2.335599 37.350091 2.551382 -2.100186 -2.838461 2.353764
RightUpLeg 11.087255 -0.657529 -2.856665
RightLeg -5.974942 -0.000000 0.000000
RightFoot -11.594379 -15.965773 17.960750
RightToeBase 14.865209 -0.000000 -0.000000
LeftUpLeg 9.309404 -3.186084 -1.587704
LeftLeg -3.350302 -0.000000 0.000000
LeftFoot -8.100441 13.821149 -17.021752
LeftToeBase 10.056372 -0.000000 -0.000000
Spine 9.565359 -3.992604 -3.386464
RightShoulder -6.593930 -9.722855 -27.532759
RightArm 7.611583 25.575234 26.780216
RightForeArm 8.115884 -0.000000 14.334683
RightHand 2.925950 -0.000000 -3.735066
RightHandThumb1 -24.326973 -0.000000 -32.862282
LeftShoulder -25.414016 30.376595 17.625236
LeftArm 39.671028 -50.405642 -48.122863
LeftForeArm 37.005020 -0.000000 3.266386
LeftHand -16.537081 -0.000000 -0.864446
LeftHandThumb1 -26.253704 0.000000 33.147579
Head -10.151691 12.746989 4.011880
1246
root 2.336993 37.349382 2.556640 -2.122680 -2.836092 2.363126
RightUpLeg 11.118947 -0.677042 -2.871176
RightLeg -5.974148 -0.000000 0.000000
RightFoot -11.604309 -15.951088 17.952868
RightToeBase 14.863264 -0.000000 -0.000000
LeftUpLeg 9.341124 -3.201016 -1.602554
LeftLeg -3.352254 -0.000000 0.000000
LeftFoot -8.108347 13.828044 -17.029543
LeftToeBase 10.054845 -0.000000 -0.000000
Spine 9.579052 -3.978526 -3.380074
RightShoulder -6.607124 -9.765582 -27.541936
RightArm 7.656442 25.583090 26.808916
RightForeArm 8.151037 -0.000000 14.363425
RightHand 2.894976 -0.000000 -3.755377
RightHandThumb1 -24.326973 -0.000000 -32.862282
LeftShoulder -25.400361 30.384238 17.638909
LeftArm 39.745803 -50.398968 -48.219222
LeftForeArm 36.973870 -0.000000 3.265389
LeftHand -16.491339 -0.000000 -0.754827
LeftHandThumb1 -26.253704 0.000000 33.147579
Head -10.045369 12.716068 4.022472
1247
root 2.338482 37.348378 2.561494 -2.132082 -2.838821 2.368473
RightUpLeg 11.135683 -0.678625 -2.875817
RightLeg -5.977851 -0.000000 0.000000
RightFoot -11.620079 -15.972034 17.937587
RightToeBase 14.868893 -0.000000 -0.000000
LeftUpLeg 9.358488 -3.217567 -1.613721
LeftLeg -3.353163 -0.000000 0.000000
LeftFoot -8.119837 13.844111 -17.026589
LeftToeBase 10.068575 -0.000000 -0.000000
Spine 9.573559 -3.973388 -3.363114
RightShoulder -6.598971 -9.753658 -27.569578
RightArm 7.660400 25.568064 26.829612
RightForeArm 8.162193 0.000000 14.398503
RightHand 2.913378 -0.000000 -3.799458
RightHandThumb1 -24.326973 -0.000000 -32.862282
LeftShoulder -25.414970 30.409617 17.624274
LeftArm 39.849833 -50.393955 -48.328896
LeftForeArm 36.940249 -0.000000 3.273852
LeftHand -16.490982 0.000000 -0.679714
LeftHandThumb1 -26.253704 0.000000 33.147579
Head -9.918207 12.703294 3.995636
1248
root 2.338116 37.348134 2.564589 -2.138875 -2.832886 2.370498
RightUpLeg 11.143851 -0.685990 -2.875786
RightLeg -5.970054 -0.000000 0.000000
RightFoot -11.615024 -15.978049 17.925028
RightToeBase 14.796160 -0.000000 -0.000000
LeftUpLeg 9.362672 -3.234914 -1.617322
LeftLeg -3.336911 -0.000000 0.000000
LeftFoot -8.134171 13.849046 -17.025792
LeftToeBase 10.050469 -0.000000 -0.000000
Spine 9.573246 -3.969971 -3.351677
RightShoulder -6.598891 -9.771005 -27.565578
RightArm 7.682059 25.556937 26.819227
RightForeArm 8.148688 0.000000 14.405327
RightHand 2.937228 0.000000 -3.785222
RightHandThumb1 -24.326973 -0.000000 -32.862282
LeftShoulder -25.419033 30.435739 17.619412
LeftArm 39.963424 -50.419360 -48.455996
LeftForeArm 36.928488 -0.000000 3.286861
LeftHand -16.493294 -0.000000 -0.651293
LeftHandThumb1 -26.253704 0.000000 33.147579
Head -9.822598 12.737365 4.006870
1249
root 2.339228 37.347430 2.570707 -2.164176 -2.831722 2.377813
RightUpLeg 11.183119 -0.688919 -2.884104
RightLeg -5.977687 -0.000000 0.000000
RightFoot -11.626083 -15.994254 17.909821
RightToeBase 14.846089 -0.000000 -0.000000
LeftUpLeg 9.400312 -3.257330 -1.633484
LeftLeg -3.344089 -0.000000 0.000000
LeftFoot -8.145399 13.871567 -17.039309
LeftToeBase 10.047323 -0.000000 -0.000000
Spine 9.588780 -3.967643 -3.338616
RightShoulder -6.604621 -9.792473 -27.577935
RightArm 7.728274 25.588848 26.848878
RightForeArm 8.084352 -0.000000 14.422498
RightHand 2.928939 -0.000000 -3.885703
RightHandThumb1 -24.326973 -0.000000 -32.862282
LeftShoulder -25.408372 30.436774 17.621171
LeftArm 40.013816 -50.433009 -48.535366
LeftForeArm 36.928159 -0.000000 3.310417
LeftHand -16.489541 -0.000000 -0.663526
LeftHandThumb1 -26.253704 0.000000 33.147579
Head -9.732181 12.774666 4.005364
